<?xml version="1.0" encoding="UTF-8" standalone="no"?>
<!DOCTYPE svg PUBLIC "-//W3C//DTD SVG 1.1//EN"
 "http://www.w3.org/Graphics/SVG/1.1/DTD/svg11.dtd">
<!-- Generated by graphviz version 2.43.0 (0)
 -->
<!-- Title: %3 Pages: 1 -->
<svg width="2680pt" height="644pt"
 viewBox="0.00 0.00 2679.82 644.47" xmlns="http://www.w3.org/2000/svg" xmlns:xlink="http://www.w3.org/1999/xlink">
<g id="graph0" class="graph" transform="scale(1 1) rotate(0) translate(4 640.47)">
<title>%3</title>
<polygon fill="white" stroke="transparent" points="-4,4 -4,-640.47 2675.82,-640.47 2675.82,4 -4,4"/>
<!-- leaf0 -->
<g id="node1" class="node">
<title>leaf0</title>
<ellipse fill="none" stroke="black" cx="127.5" cy="-201.28" rx="81.13" ry="25.41"/>
<text text-anchor="start" x="78" y="-205.08" font-family="Times,serif" font-size="14.00">leaf 0: </text>
<text text-anchor="start" x="127" y="-205.08" font-family="Times,serif" font-weight="bold" font-size="14.00">&#45;2.176</text>
<text text-anchor="start" x="80.5" y="-191.08" font-family="Times,serif" font-size="14.00">count: 16006</text>
</g>
<!-- split11 -->
<g id="node2" class="node">
<title>split11</title>
<polygon fill="none" stroke="black" points="489,-307.19 0,-307.19 0,-271.19 489,-271.19 489,-307.19"/>
<text text-anchor="start" x="8" y="-292.99" font-family="Times,serif" font-weight="bold" font-size="14.00">PREVIOUS_APPLICATION_APP_CREDIT_PERC_mean</text>
<text text-anchor="start" x="420" y="-292.99" font-family="Times,serif" font-size="14.00"> ≤</text>
<text text-anchor="start" x="437" y="-292.99" font-family="Times,serif" font-weight="bold" font-size="14.00">0.958</text>
<text text-anchor="start" x="197.5" y="-278.99" font-family="Times,serif" font-size="14.00">count: 43826</text>
</g>
<!-- split11&#45;&gt;leaf0 -->
<g id="edge1" class="edge">
<title>split11&#45;&gt;leaf0</title>
<path fill="none" stroke="black" d="M221.1,-271.01C205.49,-259.55 184.58,-244.19 166.49,-230.91"/>
<polygon fill="black" stroke="black" points="168.53,-228.07 158.4,-224.97 164.39,-233.71 168.53,-228.07"/>
<text text-anchor="middle" x="206" y="-241.54" font-family="Times,serif" font-size="14.00">yes</text>
</g>
<!-- split15 -->
<g id="node4" class="node">
<title>split15</title>
<polygon fill="none" stroke="black" points="438,-219.28 213,-219.28 213,-183.28 438,-183.28 438,-219.28"/>
<text text-anchor="start" x="221" y="-205.08" font-family="Times,serif" font-weight="bold" font-size="14.00">AMT_ANNUITY</text>
<text text-anchor="start" x="340" y="-205.08" font-family="Times,serif" font-size="14.00"> ≤</text>
<text text-anchor="start" x="357" y="-205.08" font-family="Times,serif" font-weight="bold" font-size="14.00">7247.250</text>
<text text-anchor="start" x="278.5" y="-191.08" font-family="Times,serif" font-size="14.00">count: 27820</text>
</g>
<!-- split11&#45;&gt;split15 -->
<g id="edge6" class="edge">
<title>split11&#45;&gt;split15</title>
<path fill="none" stroke="black" d="M260.89,-270.81C272.83,-258.15 289.15,-240.83 302.41,-226.77"/>
<polygon fill="black" stroke="black" points="305.1,-229.02 309.41,-219.35 300,-224.22 305.1,-229.02"/>
<text text-anchor="middle" x="299.5" y="-241.54" font-family="Times,serif" font-size="14.00">no</text>
</g>
<!-- leaf12 -->
<g id="node3" class="node">
<title>leaf12</title>
<ellipse fill="none" stroke="black" cx="194.5" cy="-113.37" rx="87.86" ry="25.41"/>
<text text-anchor="start" x="140.5" y="-117.17" font-family="Times,serif" font-size="14.00">leaf 12: </text>
<text text-anchor="start" x="198.5" y="-117.17" font-family="Times,serif" font-weight="bold" font-size="14.00">&#45;2.398</text>
<text text-anchor="start" x="156.5" y="-103.17" font-family="Times,serif" font-size="14.00">count: 510</text>
</g>
<!-- split15&#45;&gt;leaf12 -->
<g id="edge2" class="edge">
<title>split15&#45;&gt;leaf12</title>
<path fill="none" stroke="black" d="M299.31,-183.1C281.67,-171.53 257.99,-156.01 237.6,-142.64"/>
<polygon fill="black" stroke="black" points="239.38,-139.61 229.1,-137.06 235.54,-145.47 239.38,-139.61"/>
<text text-anchor="middle" x="281" y="-153.62" font-family="Times,serif" font-size="14.00">yes</text>
</g>
<!-- split18 -->
<g id="node6" class="node">
<title>split18</title>
<polygon fill="none" stroke="black" points="521,-131.37 286,-131.37 286,-95.37 521,-95.37 521,-131.37"/>
<text text-anchor="start" x="294" y="-117.17" font-family="Times,serif" font-weight="bold" font-size="14.00">AMT_ANNUITY</text>
<text text-anchor="start" x="413" y="-117.17" font-family="Times,serif" font-size="14.00"> ≤</text>
<text text-anchor="start" x="430" y="-117.17" font-family="Times,serif" font-weight="bold" font-size="14.00">63690.750</text>
<text text-anchor="start" x="356.5" y="-103.17" font-family="Times,serif" font-size="14.00">count: 27310</text>
</g>
<!-- split15&#45;&gt;split18 -->
<g id="edge5" class="edge">
<title>split15&#45;&gt;split18</title>
<path fill="none" stroke="black" d="M341.28,-182.89C352.78,-170.23 368.5,-152.92 381.26,-138.86"/>
<polygon fill="black" stroke="black" points="383.87,-141.19 388.01,-131.43 378.69,-136.49 383.87,-141.19"/>
<text text-anchor="middle" x="378.5" y="-153.62" font-family="Times,serif" font-size="14.00">no</text>
</g>
<!-- leaf16 -->
<g id="node5" class="node">
<title>leaf16</title>
<ellipse fill="none" stroke="black" cx="313.5" cy="-25.46" rx="87.86" ry="25.41"/>
<text text-anchor="start" x="259.5" y="-29.26" font-family="Times,serif" font-size="14.00">leaf 16: </text>
<text text-anchor="start" x="317.5" y="-29.26" font-family="Times,serif" font-weight="bold" font-size="14.00">&#45;2.238</text>
<text text-anchor="start" x="266.5" y="-15.26" font-family="Times,serif" font-size="14.00">count: 26772</text>
</g>
<!-- split18&#45;&gt;leaf16 -->
<g id="edge3" class="edge">
<title>split18&#45;&gt;leaf16</title>
<path fill="none" stroke="black" d="M385.29,-94.98C373.95,-84.16 359.05,-69.94 345.76,-57.25"/>
<polygon fill="black" stroke="black" points="347.82,-54.38 338.17,-50 342.98,-59.44 347.82,-54.38"/>
<text text-anchor="middle" x="377" y="-65.71" font-family="Times,serif" font-size="14.00">yes</text>
</g>
<!-- leaf19 -->
<g id="node7" class="node">
<title>leaf19</title>
<ellipse fill="none" stroke="black" cx="492.5" cy="-25.46" rx="87.86" ry="25.41"/>
<text text-anchor="start" x="438.5" y="-29.26" font-family="Times,serif" font-size="14.00">leaf 19: </text>
<text text-anchor="start" x="496.5" y="-29.26" font-family="Times,serif" font-weight="bold" font-size="14.00">&#45;2.392</text>
<text text-anchor="start" x="454.5" y="-15.26" font-family="Times,serif" font-size="14.00">count: 538</text>
</g>
<!-- split18&#45;&gt;leaf19 -->
<g id="edge4" class="edge">
<title>split18&#45;&gt;leaf19</title>
<path fill="none" stroke="black" d="M421.51,-94.98C432.72,-84.16 447.46,-69.94 460.59,-57.25"/>
<polygon fill="black" stroke="black" points="463.34,-59.47 468.11,-50 458.48,-54.43 463.34,-59.47"/>
<text text-anchor="middle" x="462.5" y="-65.71" font-family="Times,serif" font-size="14.00">no</text>
</g>
<!-- split8 -->
<g id="node8" class="node">
<title>split8</title>
<polygon fill="none" stroke="black" points="838,-395.1 619,-395.1 619,-359.1 838,-359.1 838,-395.1"/>
<text text-anchor="start" x="627" y="-380.9" font-family="Times,serif" font-weight="bold" font-size="14.00">FLOORSMAX_AVG</text>
<text text-anchor="start" x="769" y="-380.9" font-family="Times,serif" font-size="14.00"> ≤</text>
<text text-anchor="start" x="786" y="-380.9" font-family="Times,serif" font-weight="bold" font-size="14.00">0.189</text>
<text text-anchor="start" x="681.5" y="-366.9" font-family="Times,serif" font-size="14.00">count: 55451</text>
</g>
<!-- split8&#45;&gt;split11 -->
<g id="edge7" class="edge">
<title>split8&#45;&gt;split11</title>
<path fill="none" stroke="black" d="M632.59,-359.08C551.29,-344.65 434.83,-323.98 350.73,-309.05"/>
<polygon fill="black" stroke="black" points="351.09,-305.56 340.64,-307.26 349.87,-312.45 351.09,-305.56"/>
<text text-anchor="middle" x="528" y="-329.45" font-family="Times,serif" font-size="14.00">yes</text>
</g>
<!-- split13 -->
<g id="node10" class="node">
<title>split13</title>
<polygon fill="none" stroke="black" points="964,-307.19 493,-307.19 493,-271.19 964,-271.19 964,-307.19"/>
<text text-anchor="start" x="501" y="-292.99" font-family="Times,serif" font-weight="bold" font-size="14.00">PREVIOUS_APPLICATION_AMT_ANNUITY_min</text>
<text text-anchor="start" x="866" y="-292.99" font-family="Times,serif" font-size="14.00"> ≤</text>
<text text-anchor="start" x="883" y="-292.99" font-family="Times,serif" font-weight="bold" font-size="14.00">8777.183</text>
<text text-anchor="start" x="681.5" y="-278.99" font-family="Times,serif" font-size="14.00">count: 11625</text>
</g>
<!-- split8&#45;&gt;split13 -->
<g id="edge12" class="edge">
<title>split8&#45;&gt;split13</title>
<path fill="none" stroke="black" d="M728.5,-358.72C728.5,-346.88 728.5,-330.97 728.5,-317.45"/>
<polygon fill="black" stroke="black" points="732,-317.26 728.5,-307.26 725,-317.26 732,-317.26"/>
<text text-anchor="middle" x="737.5" y="-329.45" font-family="Times,serif" font-size="14.00">no</text>
</g>
<!-- leaf9 -->
<g id="node9" class="node">
<title>leaf9</title>
<ellipse fill="none" stroke="black" cx="529.5" cy="-201.28" rx="81.13" ry="25.41"/>
<text text-anchor="start" x="480" y="-205.08" font-family="Times,serif" font-size="14.00">leaf 9: </text>
<text text-anchor="start" x="529" y="-205.08" font-family="Times,serif" font-weight="bold" font-size="14.00">&#45;2.264</text>
<text text-anchor="start" x="487" y="-191.08" font-family="Times,serif" font-size="14.00">count: 6430</text>
</g>
<!-- split13&#45;&gt;leaf9 -->
<g id="edge8" class="edge">
<title>split13&#45;&gt;leaf9</title>
<path fill="none" stroke="black" d="M688.71,-271.01C659.08,-258.22 618.24,-240.59 585.35,-226.39"/>
<polygon fill="black" stroke="black" points="586.42,-223.04 575.86,-222.29 583.65,-229.47 586.42,-223.04"/>
<text text-anchor="middle" x="654" y="-241.54" font-family="Times,serif" font-size="14.00">yes</text>
</g>
<!-- split16 -->
<g id="node12" class="node">
<title>split16</title>
<polygon fill="none" stroke="black" points="850,-219.28 615,-219.28 615,-183.28 850,-183.28 850,-219.28"/>
<text text-anchor="start" x="623" y="-205.08" font-family="Times,serif" font-weight="bold" font-size="14.00">AMT_ANNUITY</text>
<text text-anchor="start" x="742" y="-205.08" font-family="Times,serif" font-size="14.00"> ≤</text>
<text text-anchor="start" x="759" y="-205.08" font-family="Times,serif" font-weight="bold" font-size="14.00">46260.000</text>
<text text-anchor="start" x="690" y="-191.08" font-family="Times,serif" font-size="14.00">count: 5195</text>
</g>
<!-- split13&#45;&gt;split16 -->
<g id="edge11" class="edge">
<title>split13&#45;&gt;split16</title>
<path fill="none" stroke="black" d="M729.31,-270.81C729.86,-258.97 730.6,-243.05 731.23,-229.54"/>
<polygon fill="black" stroke="black" points="734.74,-229.5 731.71,-219.35 727.74,-229.17 734.74,-229.5"/>
<text text-anchor="middle" x="740.5" y="-241.54" font-family="Times,serif" font-size="14.00">no</text>
</g>
<!-- leaf14 -->
<g id="node11" class="node">
<title>leaf14</title>
<ellipse fill="none" stroke="black" cx="696.5" cy="-113.37" rx="87.86" ry="25.41"/>
<text text-anchor="start" x="642.5" y="-117.17" font-family="Times,serif" font-size="14.00">leaf 14: </text>
<text text-anchor="start" x="700.5" y="-117.17" font-family="Times,serif" font-weight="bold" font-size="14.00">&#45;2.337</text>
<text text-anchor="start" x="654" y="-103.17" font-family="Times,serif" font-size="14.00">count: 4223</text>
</g>
<!-- split16&#45;&gt;leaf14 -->
<g id="edge9" class="edge">
<title>split16&#45;&gt;leaf14</title>
<path fill="none" stroke="black" d="M725.21,-182.89C721.03,-172.91 715.64,-160.03 710.65,-148.14"/>
<polygon fill="black" stroke="black" points="713.87,-146.76 706.78,-138.89 707.41,-149.47 713.87,-146.76"/>
<text text-anchor="middle" x="730" y="-153.62" font-family="Times,serif" font-size="14.00">yes</text>
</g>
<!-- leaf17 -->
<g id="node13" class="node">
<title>leaf17</title>
<ellipse fill="none" stroke="black" cx="875.5" cy="-113.37" rx="87.86" ry="25.41"/>
<text text-anchor="start" x="821.5" y="-117.17" font-family="Times,serif" font-size="14.00">leaf 17: </text>
<text text-anchor="start" x="879.5" y="-117.17" font-family="Times,serif" font-weight="bold" font-size="14.00">&#45;2.408</text>
<text text-anchor="start" x="837.5" y="-103.17" font-family="Times,serif" font-size="14.00">count: 972</text>
</g>
<!-- split16&#45;&gt;leaf17 -->
<g id="edge10" class="edge">
<title>split16&#45;&gt;leaf17</title>
<path fill="none" stroke="black" d="M761.09,-183.1C780.74,-171.3 807.24,-155.38 829.79,-141.83"/>
<polygon fill="black" stroke="black" points="831.76,-144.73 838.53,-136.58 828.16,-138.73 831.76,-144.73"/>
<text text-anchor="middle" x="822.5" y="-153.62" font-family="Times,serif" font-size="14.00">no</text>
</g>
<!-- split4 -->
<g id="node14" class="node">
<title>split4</title>
<polygon fill="none" stroke="black" points="1367,-483.01 1160,-483.01 1160,-447.01 1367,-447.01 1367,-483.01"/>
<text text-anchor="start" x="1168" y="-468.81" font-family="Times,serif" font-weight="bold" font-size="14.00">PAYMENT_RATE</text>
<text text-anchor="start" x="1298" y="-468.81" font-family="Times,serif" font-size="14.00"> ≤</text>
<text text-anchor="start" x="1315" y="-468.81" font-family="Times,serif" font-weight="bold" font-size="14.00">0.092</text>
<text text-anchor="start" x="1216.5" y="-454.81" font-family="Times,serif" font-size="14.00">count: 62377</text>
</g>
<!-- split4&#45;&gt;split8 -->
<g id="edge13" class="edge">
<title>split4&#45;&gt;split8</title>
<path fill="none" stroke="black" d="M1159.71,-447.35C1069.41,-432.85 938.67,-411.85 844.85,-396.79"/>
<polygon fill="black" stroke="black" points="845.17,-393.29 834.74,-395.16 844.06,-400.2 845.17,-393.29"/>
<text text-anchor="middle" x="1041" y="-417.36" font-family="Times,serif" font-size="14.00">yes</text>
</g>
<!-- split12 -->
<g id="node20" class="node">
<title>split12</title>
<polygon fill="none" stroke="black" points="1367,-395.1 1160,-395.1 1160,-359.1 1367,-359.1 1367,-395.1"/>
<text text-anchor="start" x="1168" y="-380.9" font-family="Times,serif" font-weight="bold" font-size="14.00">PAYMENT_RATE</text>
<text text-anchor="start" x="1298" y="-380.9" font-family="Times,serif" font-size="14.00"> ≤</text>
<text text-anchor="start" x="1315" y="-380.9" font-family="Times,serif" font-weight="bold" font-size="14.00">0.105</text>
<text text-anchor="start" x="1221" y="-366.9" font-family="Times,serif" font-size="14.00">count: 6926</text>
</g>
<!-- split4&#45;&gt;split12 -->
<g id="edge20" class="edge">
<title>split4&#45;&gt;split12</title>
<path fill="none" stroke="black" d="M1263.5,-446.63C1263.5,-434.79 1263.5,-418.88 1263.5,-405.37"/>
<polygon fill="black" stroke="black" points="1267,-405.17 1263.5,-395.17 1260,-405.17 1267,-405.17"/>
<text text-anchor="middle" x="1272.5" y="-417.36" font-family="Times,serif" font-size="14.00">no</text>
</g>
<!-- leaf5 -->
<g id="node15" class="node">
<title>leaf5</title>
<ellipse fill="none" stroke="black" cx="947.5" cy="-201.28" rx="81.13" ry="25.41"/>
<text text-anchor="start" x="898" y="-205.08" font-family="Times,serif" font-size="14.00">leaf 5: </text>
<text text-anchor="start" x="947" y="-205.08" font-family="Times,serif" font-weight="bold" font-size="14.00">&#45;2.425</text>
<text text-anchor="start" x="909.5" y="-191.08" font-family="Times,serif" font-size="14.00">count: 692</text>
</g>
<!-- split17 -->
<g id="node16" class="node">
<title>split17</title>
<polygon fill="none" stroke="black" points="1403,-307.19 968,-307.19 968,-271.19 1403,-271.19 1403,-307.19"/>
<text text-anchor="start" x="976" y="-292.99" font-family="Times,serif" font-weight="bold" font-size="14.00">BUREAU_DAYS_CREDIT_ENDDATE_mean</text>
<text text-anchor="start" x="1299" y="-292.99" font-family="Times,serif" font-size="14.00"> ≤</text>
<text text-anchor="start" x="1316" y="-292.99" font-family="Times,serif" font-weight="bold" font-size="14.00">&#45;1453.969</text>
<text text-anchor="start" x="1143" y="-278.99" font-family="Times,serif" font-size="14.00">count: 4233</text>
</g>
<!-- split17&#45;&gt;leaf5 -->
<g id="edge14" class="edge">
<title>split17&#45;&gt;leaf5</title>
<path fill="none" stroke="black" d="M1138.19,-271.11C1101.05,-257.71 1049.04,-238.93 1008.72,-224.38"/>
<polygon fill="black" stroke="black" points="1009.85,-221.07 999.26,-220.96 1007.47,-227.65 1009.85,-221.07"/>
<text text-anchor="middle" x="1094" y="-241.54" font-family="Times,serif" font-size="14.00">yes</text>
</g>
<!-- split19 -->
<g id="node18" class="node">
<title>split19</title>
<polygon fill="none" stroke="black" points="1448.5,-219.28 1032.5,-219.28 1032.5,-183.28 1448.5,-183.28 1448.5,-219.28"/>
<text text-anchor="start" x="1040.5" y="-205.08" font-family="Times,serif" font-weight="bold" font-size="14.00">BUREAU_DAYS_CREDIT_ENDDATE_mean</text>
<text text-anchor="start" x="1363.5" y="-205.08" font-family="Times,serif" font-size="14.00"> ≤</text>
<text text-anchor="start" x="1380.5" y="-205.08" font-family="Times,serif" font-weight="bold" font-size="14.00">&#45;61.116</text>
<text text-anchor="start" x="1198" y="-191.08" font-family="Times,serif" font-size="14.00">count: 3541</text>
</g>
<!-- split17&#45;&gt;split19 -->
<g id="edge17" class="edge">
<title>split17&#45;&gt;split19</title>
<path fill="none" stroke="black" d="M1196.63,-270.81C1204.51,-258.5 1215.21,-241.79 1224.07,-227.95"/>
<polygon fill="black" stroke="black" points="1227.13,-229.65 1229.57,-219.35 1221.23,-225.88 1227.13,-229.65"/>
<text text-anchor="middle" x="1225.5" y="-241.54" font-family="Times,serif" font-size="14.00">no</text>
</g>
<!-- leaf18 -->
<g id="node17" class="node">
<title>leaf18</title>
<ellipse fill="none" stroke="black" cx="1096.5" cy="-113.37" rx="87.86" ry="25.41"/>
<text text-anchor="start" x="1042.5" y="-117.17" font-family="Times,serif" font-size="14.00">leaf 18: </text>
<text text-anchor="start" x="1100.5" y="-117.17" font-family="Times,serif" font-weight="bold" font-size="14.00">&#45;2.380</text>
<text text-anchor="start" x="1054" y="-103.17" font-family="Times,serif" font-size="14.00">count: 2896</text>
</g>
<!-- split19&#45;&gt;leaf18 -->
<g id="edge15" class="edge">
<title>split19&#45;&gt;leaf18</title>
<path fill="none" stroke="black" d="M1211.71,-183.1C1191.92,-171.3 1165.24,-155.38 1142.53,-141.83"/>
<polygon fill="black" stroke="black" points="1144.11,-138.69 1133.73,-136.58 1140.52,-144.71 1144.11,-138.69"/>
<text text-anchor="middle" x="1190" y="-153.62" font-family="Times,serif" font-size="14.00">yes</text>
</g>
<!-- leaf20 -->
<g id="node19" class="node">
<title>leaf20</title>
<ellipse fill="none" stroke="black" cx="1275.5" cy="-113.37" rx="87.86" ry="25.41"/>
<text text-anchor="start" x="1221.5" y="-117.17" font-family="Times,serif" font-size="14.00">leaf 20: </text>
<text text-anchor="start" x="1279.5" y="-117.17" font-family="Times,serif" font-weight="bold" font-size="14.00">&#45;2.421</text>
<text text-anchor="start" x="1237.5" y="-103.17" font-family="Times,serif" font-size="14.00">count: 645</text>
</g>
<!-- split19&#45;&gt;leaf20 -->
<g id="edge16" class="edge">
<title>split19&#45;&gt;leaf20</title>
<path fill="none" stroke="black" d="M1247.58,-182.89C1251.61,-173.01 1256.79,-160.29 1261.6,-148.5"/>
<polygon fill="black" stroke="black" points="1264.98,-149.47 1265.51,-138.89 1258.5,-146.83 1264.98,-149.47"/>
<text text-anchor="middle" x="1269.5" y="-153.62" font-family="Times,serif" font-size="14.00">no</text>
</g>
<!-- split12&#45;&gt;split17 -->
<g id="edge18" class="edge">
<title>split12&#45;&gt;split17</title>
<path fill="none" stroke="black" d="M1247.72,-358.72C1236.22,-346.06 1220.5,-328.74 1207.74,-314.68"/>
<polygon fill="black" stroke="black" points="1210.31,-312.31 1200.99,-307.26 1205.13,-317.01 1210.31,-312.31"/>
<text text-anchor="middle" x="1242" y="-329.45" font-family="Times,serif" font-size="14.00">yes</text>
</g>
<!-- leaf13 -->
<g id="node21" class="node">
<title>leaf13</title>
<ellipse fill="none" stroke="black" cx="1494.5" cy="-289.19" rx="87.86" ry="25.41"/>
<text text-anchor="start" x="1440.5" y="-292.99" font-family="Times,serif" font-size="14.00">leaf 13: </text>
<text text-anchor="start" x="1498.5" y="-292.99" font-family="Times,serif" font-weight="bold" font-size="14.00">&#45;2.308</text>
<text text-anchor="start" x="1452" y="-278.99" font-family="Times,serif" font-size="14.00">count: 2693</text>
</g>
<!-- split12&#45;&gt;leaf13 -->
<g id="edge19" class="edge">
<title>split12&#45;&gt;leaf13</title>
<path fill="none" stroke="black" d="M1309.41,-359.03C1344.71,-345.9 1393.83,-327.63 1432.6,-313.21"/>
<polygon fill="black" stroke="black" points="1434.07,-316.4 1442.22,-309.64 1431.63,-309.84 1434.07,-316.4"/>
<text text-anchor="middle" x="1402.5" y="-329.45" font-family="Times,serif" font-size="14.00">no</text>
</g>
<!-- split1 -->
<g id="node22" class="node">
<title>split1</title>
<polygon fill="none" stroke="black" points="1739,-563.47 1346,-563.47 1346,-527.47 1739,-527.47 1739,-563.47"/>
<text text-anchor="start" x="1354" y="-549.27" font-family="Times,serif" font-weight="bold" font-size="14.00">INSTALLMENTS_PAYMENTS_DPD_mean</text>
<text text-anchor="start" x="1670" y="-549.27" font-family="Times,serif" font-size="14.00"> ≤</text>
<text text-anchor="start" x="1687" y="-549.27" font-family="Times,serif" font-weight="bold" font-size="14.00">0.077</text>
<text text-anchor="start" x="1491" y="-535.27" font-family="Times,serif" font-size="14.00">count: 114405</text>
</g>
<!-- split1&#45;&gt;split4 -->
<g id="edge21" class="edge">
<title>split1&#45;&gt;split4</title>
<path fill="none" stroke="black" d="M1481.96,-527.45C1438.51,-515.23 1379.82,-498.73 1334.22,-485.9"/>
<polygon fill="black" stroke="black" points="1334.98,-482.48 1324.4,-483.14 1333.08,-489.22 1334.98,-482.48"/>
<text text-anchor="middle" x="1449" y="-505.27" font-family="Times,serif" font-size="14.00">yes</text>
</g>
<!-- split7 -->
<g id="node24" class="node">
<title>split7</title>
<polygon fill="none" stroke="black" points="1646,-483.01 1439,-483.01 1439,-447.01 1646,-447.01 1646,-483.01"/>
<text text-anchor="start" x="1447" y="-468.81" font-family="Times,serif" font-weight="bold" font-size="14.00">PAYMENT_RATE</text>
<text text-anchor="start" x="1577" y="-468.81" font-family="Times,serif" font-size="14.00"> ≤</text>
<text text-anchor="start" x="1594" y="-468.81" font-family="Times,serif" font-weight="bold" font-size="14.00">0.027</text>
<text text-anchor="start" x="1495.5" y="-454.81" font-family="Times,serif" font-size="14.00">count: 52028</text>
</g>
<!-- split1&#45;&gt;split7 -->
<g id="edge30" class="edge">
<title>split1&#45;&gt;split7</title>
<path fill="none" stroke="black" d="M1542.5,-527.45C1542.5,-517.54 1542.5,-504.82 1542.5,-493.53"/>
<polygon fill="black" stroke="black" points="1546,-493.28 1542.5,-483.28 1539,-493.28 1546,-493.28"/>
<text text-anchor="middle" x="1551.5" y="-505.27" font-family="Times,serif" font-size="14.00">no</text>
</g>
<!-- leaf2 -->
<g id="node23" class="node">
<title>leaf2</title>
<ellipse fill="none" stroke="black" cx="1518.5" cy="-377.1" rx="81.13" ry="25.41"/>
<text text-anchor="start" x="1469" y="-380.9" font-family="Times,serif" font-size="14.00">leaf 2: </text>
<text text-anchor="start" x="1518" y="-380.9" font-family="Times,serif" font-weight="bold" font-size="14.00">&#45;2.416</text>
<text text-anchor="start" x="1480.5" y="-366.9" font-family="Times,serif" font-size="14.00">count: 608</text>
</g>
<!-- split7&#45;&gt;leaf2 -->
<g id="edge22" class="edge">
<title>split7&#45;&gt;leaf2</title>
<path fill="none" stroke="black" d="M1537.64,-446.63C1534.91,-436.84 1531.4,-424.28 1528.13,-412.58"/>
<polygon fill="black" stroke="black" points="1531.41,-411.31 1525.35,-402.62 1524.67,-413.2 1531.41,-411.31"/>
<text text-anchor="middle" x="1545" y="-417.36" font-family="Times,serif" font-size="14.00">yes</text>
</g>
<!-- split9 -->
<g id="node28" class="node">
<title>split9</title>
<polygon fill="none" stroke="black" points="1811,-395.1 1604,-395.1 1604,-359.1 1811,-359.1 1811,-395.1"/>
<text text-anchor="start" x="1612" y="-380.9" font-family="Times,serif" font-weight="bold" font-size="14.00">PAYMENT_RATE</text>
<text text-anchor="start" x="1742" y="-380.9" font-family="Times,serif" font-size="14.00"> ≤</text>
<text text-anchor="start" x="1759" y="-380.9" font-family="Times,serif" font-weight="bold" font-size="14.00">0.093</text>
<text text-anchor="start" x="1660.5" y="-366.9" font-family="Times,serif" font-size="14.00">count: 51420</text>
</g>
<!-- split7&#45;&gt;split9 -->
<g id="edge29" class="edge">
<title>split7&#45;&gt;split9</title>
<path fill="none" stroke="black" d="M1575.49,-446.84C1601.43,-433.33 1637.73,-414.43 1665.71,-399.86"/>
<polygon fill="black" stroke="black" points="1667.59,-402.83 1674.85,-395.11 1664.36,-396.62 1667.59,-402.83"/>
<text text-anchor="middle" x="1644.5" y="-417.36" font-family="Times,serif" font-size="14.00">no</text>
</g>
<!-- leaf8 -->
<g id="node25" class="node">
<title>leaf8</title>
<ellipse fill="none" stroke="black" cx="1542.5" cy="-201.28" rx="81.13" ry="25.41"/>
<text text-anchor="start" x="1493" y="-205.08" font-family="Times,serif" font-size="14.00">leaf 8: </text>
<text text-anchor="start" x="1542" y="-205.08" font-family="Times,serif" font-weight="bold" font-size="14.00">&#45;2.190</text>
<text text-anchor="start" x="1495.5" y="-191.08" font-family="Times,serif" font-size="14.00">count: 21612</text>
</g>
<!-- split10 -->
<g id="node26" class="node">
<title>split10</title>
<polygon fill="none" stroke="black" points="1793,-307.19 1586,-307.19 1586,-271.19 1793,-271.19 1793,-307.19"/>
<text text-anchor="start" x="1594" y="-292.99" font-family="Times,serif" font-weight="bold" font-size="14.00">PAYMENT_RATE</text>
<text text-anchor="start" x="1724" y="-292.99" font-family="Times,serif" font-size="14.00"> ≤</text>
<text text-anchor="start" x="1741" y="-292.99" font-family="Times,serif" font-weight="bold" font-size="14.00">0.047</text>
<text text-anchor="start" x="1642.5" y="-278.99" font-family="Times,serif" font-size="14.00">count: 45819</text>
</g>
<!-- split10&#45;&gt;leaf8 -->
<g id="edge23" class="edge">
<title>split10&#45;&gt;leaf8</title>
<path fill="none" stroke="black" d="M1660.11,-271.01C1639.6,-259.03 1611.83,-242.8 1588.42,-229.12"/>
<polygon fill="black" stroke="black" points="1590.09,-226.04 1579.69,-224.01 1586.55,-232.08 1590.09,-226.04"/>
<text text-anchor="middle" x="1638" y="-241.54" font-family="Times,serif" font-size="14.00">yes</text>
</g>
<!-- leaf11 -->
<g id="node27" class="node">
<title>leaf11</title>
<ellipse fill="none" stroke="black" cx="1715.5" cy="-201.28" rx="87.86" ry="25.41"/>
<text text-anchor="start" x="1661.5" y="-205.08" font-family="Times,serif" font-size="14.00">leaf 11: </text>
<text text-anchor="start" x="1719.5" y="-205.08" font-family="Times,serif" font-weight="bold" font-size="14.00">&#45;2.116</text>
<text text-anchor="start" x="1668.5" y="-191.08" font-family="Times,serif" font-size="14.00">count: 24207</text>
</g>
<!-- split10&#45;&gt;leaf11 -->
<g id="edge24" class="edge">
<title>split10&#45;&gt;leaf11</title>
<path fill="none" stroke="black" d="M1694.76,-270.81C1697.75,-260.92 1701.6,-248.2 1705.17,-236.41"/>
<polygon fill="black" stroke="black" points="1708.53,-237.39 1708.08,-226.8 1701.83,-235.36 1708.53,-237.39"/>
<text text-anchor="middle" x="1713.5" y="-241.54" font-family="Times,serif" font-size="14.00">no</text>
</g>
<!-- split9&#45;&gt;split10 -->
<g id="edge25" class="edge">
<title>split9&#45;&gt;split10</title>
<path fill="none" stroke="black" d="M1703.86,-358.72C1701.35,-346.76 1697.98,-330.65 1695.13,-317.05"/>
<polygon fill="black" stroke="black" points="1698.55,-316.33 1693.08,-307.26 1691.7,-317.76 1698.55,-316.33"/>
<text text-anchor="middle" x="1713" y="-329.45" font-family="Times,serif" font-size="14.00">yes</text>
</g>
<!-- split14 -->
<g id="node30" class="node">
<title>split14</title>
<polygon fill="none" stroke="black" points="2004,-307.19 1797,-307.19 1797,-271.19 2004,-271.19 2004,-307.19"/>
<text text-anchor="start" x="1805" y="-292.99" font-family="Times,serif" font-weight="bold" font-size="14.00">PAYMENT_RATE</text>
<text text-anchor="start" x="1935" y="-292.99" font-family="Times,serif" font-size="14.00"> ≤</text>
<text text-anchor="start" x="1952" y="-292.99" font-family="Times,serif" font-weight="bold" font-size="14.00">0.105</text>
<text text-anchor="start" x="1858" y="-278.99" font-family="Times,serif" font-size="14.00">count: 5601</text>
</g>
<!-- split9&#45;&gt;split14 -->
<g id="edge28" class="edge">
<title>split9&#45;&gt;split14</title>
<path fill="none" stroke="black" d="M1746.09,-358.92C1776.83,-345.24 1820.01,-326.02 1852.89,-311.38"/>
<polygon fill="black" stroke="black" points="1854.59,-314.46 1862.3,-307.19 1851.74,-308.06 1854.59,-314.46"/>
<text text-anchor="middle" x="1825.5" y="-329.45" font-family="Times,serif" font-size="14.00">no</text>
</g>
<!-- leaf10 -->
<g id="node29" class="node">
<title>leaf10</title>
<ellipse fill="none" stroke="black" cx="1899.5" cy="-201.28" rx="87.86" ry="25.41"/>
<text text-anchor="start" x="1845.5" y="-205.08" font-family="Times,serif" font-size="14.00">leaf 10: </text>
<text text-anchor="start" x="1903.5" y="-205.08" font-family="Times,serif" font-weight="bold" font-size="14.00">&#45;2.337</text>
<text text-anchor="start" x="1857" y="-191.08" font-family="Times,serif" font-size="14.00">count: 3096</text>
</g>
<!-- split14&#45;&gt;leaf10 -->
<g id="edge26" class="edge">
<title>split14&#45;&gt;leaf10</title>
<path fill="none" stroke="black" d="M1900.3,-270.81C1900.18,-261.12 1900.04,-248.71 1899.91,-237.12"/>
<polygon fill="black" stroke="black" points="1903.4,-236.76 1899.79,-226.8 1896.4,-236.84 1903.4,-236.76"/>
<text text-anchor="middle" x="1913" y="-241.54" font-family="Times,serif" font-size="14.00">yes</text>
</g>
<!-- leaf15 -->
<g id="node31" class="node">
<title>leaf15</title>
<ellipse fill="none" stroke="black" cx="2078.5" cy="-201.28" rx="87.86" ry="25.41"/>
<text text-anchor="start" x="2024.5" y="-205.08" font-family="Times,serif" font-size="14.00">leaf 15: </text>
<text text-anchor="start" x="2082.5" y="-205.08" font-family="Times,serif" font-weight="bold" font-size="14.00">&#45;2.218</text>
<text text-anchor="start" x="2036" y="-191.08" font-family="Times,serif" font-size="14.00">count: 2505</text>
</g>
<!-- split14&#45;&gt;leaf15 -->
<g id="edge27" class="edge">
<title>split14&#45;&gt;leaf15</title>
<path fill="none" stroke="black" d="M1936.09,-271.01C1961.73,-258.64 1996.74,-241.74 2025.63,-227.8"/>
<polygon fill="black" stroke="black" points="2027.29,-230.88 2034.78,-223.38 2024.25,-224.58 2027.29,-230.88"/>
<text text-anchor="middle" x="2009.5" y="-241.54" font-family="Times,serif" font-size="14.00">no</text>
</g>
<!-- split0 -->
<g id="node32" class="node">
<title>split0</title>
<polygon fill="none" stroke="black" points="1901,-636.47 1488,-636.47 1488,-600.47 1901,-600.47 1901,-636.47"/>
<text text-anchor="start" x="1496" y="-622.27" font-family="Times,serif" font-weight="bold" font-size="14.00">BUREAU_DAYS_CREDIT_UPDATE_mean</text>
<text text-anchor="start" x="1806" y="-622.27" font-family="Times,serif" font-size="14.00"> ≤</text>
<text text-anchor="start" x="1823" y="-622.27" font-family="Times,serif" font-weight="bold" font-size="14.00">&#45;347.840</text>
<text text-anchor="start" x="1643" y="-608.27" font-family="Times,serif" font-size="14.00">count: 206032</text>
</g>
<!-- split0&#45;&gt;split1 -->
<g id="edge31" class="edge">
<title>split0&#45;&gt;split1</title>
<path fill="none" stroke="black" d="M1658.09,-600.46C1637.19,-590.7 1610.74,-578.35 1588.42,-567.92"/>
<polygon fill="black" stroke="black" points="1589.68,-564.64 1579.14,-563.58 1586.72,-570.99 1589.68,-564.64"/>
<text text-anchor="middle" x="1645" y="-578.27" font-family="Times,serif" font-size="14.00">yes</text>
</g>
<!-- split2 -->
<g id="node34" class="node">
<title>split2</title>
<polygon fill="none" stroke="black" points="1998,-563.47 1791,-563.47 1791,-527.47 1998,-527.47 1998,-563.47"/>
<text text-anchor="start" x="1799" y="-549.27" font-family="Times,serif" font-weight="bold" font-size="14.00">PAYMENT_RATE</text>
<text text-anchor="start" x="1929" y="-549.27" font-family="Times,serif" font-size="14.00"> ≤</text>
<text text-anchor="start" x="1946" y="-549.27" font-family="Times,serif" font-weight="bold" font-size="14.00">0.046</text>
<text text-anchor="start" x="1847.5" y="-535.27" font-family="Times,serif" font-size="14.00">count: 91627</text>
</g>
<!-- split0&#45;&gt;split2 -->
<g id="edge40" class="edge">
<title>split0&#45;&gt;split2</title>
<path fill="none" stroke="black" d="M1742.4,-600.46C1770.77,-590.39 1806.89,-577.57 1836.81,-566.95"/>
<polygon fill="black" stroke="black" points="1838.04,-570.23 1846.29,-563.58 1835.7,-563.63 1838.04,-570.23"/>
<text text-anchor="middle" x="1821.5" y="-578.27" font-family="Times,serif" font-size="14.00">no</text>
</g>
<!-- leaf1 -->
<g id="node33" class="node">
<title>leaf1</title>
<ellipse fill="none" stroke="black" cx="1894.5" cy="-465.01" rx="81.13" ry="25.41"/>
<text text-anchor="start" x="1845" y="-468.81" font-family="Times,serif" font-size="14.00">leaf 1: </text>
<text text-anchor="start" x="1894" y="-468.81" font-family="Times,serif" font-weight="bold" font-size="14.00">&#45;2.161</text>
<text text-anchor="start" x="1847.5" y="-454.81" font-family="Times,serif" font-size="14.00">count: 32858</text>
</g>
<!-- split2&#45;&gt;leaf1 -->
<g id="edge32" class="edge">
<title>split2&#45;&gt;leaf1</title>
<path fill="none" stroke="black" d="M1894.5,-527.45C1894.5,-519.65 1894.5,-510.12 1894.5,-500.9"/>
<polygon fill="black" stroke="black" points="1898,-500.75 1894.5,-490.75 1891,-500.75 1898,-500.75"/>
<text text-anchor="middle" x="1907" y="-505.27" font-family="Times,serif" font-size="14.00">yes</text>
</g>
<!-- split3 -->
<g id="node38" class="node">
<title>split3</title>
<polygon fill="none" stroke="black" points="2247,-483.01 2040,-483.01 2040,-447.01 2247,-447.01 2247,-483.01"/>
<text text-anchor="start" x="2048" y="-468.81" font-family="Times,serif" font-weight="bold" font-size="14.00">PAYMENT_RATE</text>
<text text-anchor="start" x="2178" y="-468.81" font-family="Times,serif" font-size="14.00"> ≤</text>
<text text-anchor="start" x="2195" y="-468.81" font-family="Times,serif" font-weight="bold" font-size="14.00">0.092</text>
<text text-anchor="start" x="2096.5" y="-454.81" font-family="Times,serif" font-size="14.00">count: 58769</text>
</g>
<!-- split2&#45;&gt;split3 -->
<g id="edge39" class="edge">
<title>split2&#45;&gt;split3</title>
<path fill="none" stroke="black" d="M1948.53,-527.45C1986.98,-515.33 2038.81,-499 2079.36,-486.22"/>
<polygon fill="black" stroke="black" points="2080.66,-489.48 2089.15,-483.14 2078.56,-482.81 2080.66,-489.48"/>
<text text-anchor="middle" x="2035.5" y="-505.27" font-family="Times,serif" font-size="14.00">no</text>
</g>
<!-- leaf3 -->
<g id="node35" class="node">
<title>leaf3</title>
<ellipse fill="none" stroke="black" cx="2089.5" cy="-289.19" rx="81.13" ry="25.41"/>
<text text-anchor="start" x="2040" y="-292.99" font-family="Times,serif" font-size="14.00">leaf 3: </text>
<text text-anchor="start" x="2089" y="-292.99" font-family="Times,serif" font-weight="bold" font-size="14.00">&#45;2.067</text>
<text text-anchor="start" x="2042.5" y="-278.99" font-family="Times,serif" font-size="14.00">count: 48522</text>
</g>
<!-- split5 -->
<g id="node36" class="node">
<title>split5</title>
<polygon fill="none" stroke="black" points="2261,-395.1 2026,-395.1 2026,-359.1 2261,-359.1 2261,-395.1"/>
<text text-anchor="start" x="2034" y="-380.9" font-family="Times,serif" font-weight="bold" font-size="14.00">AMT_ANNUITY</text>
<text text-anchor="start" x="2153" y="-380.9" font-family="Times,serif" font-size="14.00"> ≤</text>
<text text-anchor="start" x="2170" y="-380.9" font-family="Times,serif" font-weight="bold" font-size="14.00">63690.750</text>
<text text-anchor="start" x="2096.5" y="-366.9" font-family="Times,serif" font-size="14.00">count: 49207</text>
</g>
<!-- split5&#45;&gt;leaf3 -->
<g id="edge33" class="edge">
<title>split5&#45;&gt;leaf3</title>
<path fill="none" stroke="black" d="M2132.57,-358.72C2126.12,-348.46 2117.75,-335.14 2110.11,-322.98"/>
<polygon fill="black" stroke="black" points="2112.99,-320.99 2104.71,-314.39 2107.07,-324.72 2112.99,-320.99"/>
<text text-anchor="middle" x="2133" y="-329.45" font-family="Times,serif" font-size="14.00">yes</text>
</g>
<!-- leaf6 -->
<g id="node37" class="node">
<title>leaf6</title>
<ellipse fill="none" stroke="black" cx="2256.5" cy="-289.19" rx="81.13" ry="25.41"/>
<text text-anchor="start" x="2207" y="-292.99" font-family="Times,serif" font-size="14.00">leaf 6: </text>
<text text-anchor="start" x="2256" y="-292.99" font-family="Times,serif" font-weight="bold" font-size="14.00">&#45;2.386</text>
<text text-anchor="start" x="2218.5" y="-278.99" font-family="Times,serif" font-size="14.00">count: 685</text>
</g>
<!-- split5&#45;&gt;leaf6 -->
<g id="edge34" class="edge">
<title>split5&#45;&gt;leaf6</title>
<path fill="none" stroke="black" d="M2166.1,-358.92C2181.04,-347.56 2201.01,-332.38 2218.37,-319.18"/>
<polygon fill="black" stroke="black" points="2220.81,-321.72 2226.66,-312.88 2216.58,-316.15 2220.81,-321.72"/>
<text text-anchor="middle" x="2216.5" y="-329.45" font-family="Times,serif" font-size="14.00">no</text>
</g>
<!-- split3&#45;&gt;split5 -->
<g id="edge35" class="edge">
<title>split3&#45;&gt;split5</title>
<path fill="none" stroke="black" d="M2143.5,-446.63C2143.5,-434.79 2143.5,-418.88 2143.5,-405.37"/>
<polygon fill="black" stroke="black" points="2147,-405.17 2143.5,-395.17 2140,-405.17 2147,-405.17"/>
<text text-anchor="middle" x="2156" y="-417.36" font-family="Times,serif" font-size="14.00">yes</text>
</g>
<!-- split6 -->
<g id="node40" class="node">
<title>split6</title>
<polygon fill="none" stroke="black" points="2527,-395.1 2320,-395.1 2320,-359.1 2527,-359.1 2527,-395.1"/>
<text text-anchor="start" x="2328" y="-380.9" font-family="Times,serif" font-weight="bold" font-size="14.00">PAYMENT_RATE</text>
<text text-anchor="start" x="2458" y="-380.9" font-family="Times,serif" font-size="14.00"> ≤</text>
<text text-anchor="start" x="2475" y="-380.9" font-family="Times,serif" font-weight="bold" font-size="14.00">0.106</text>
<text text-anchor="start" x="2381" y="-366.9" font-family="Times,serif" font-size="14.00">count: 9562</text>
</g>
<!-- split3&#45;&gt;split6 -->
<g id="edge38" class="edge">
<title>split3&#45;&gt;split6</title>
<path fill="none" stroke="black" d="M2199.15,-446.94C2244.96,-432.88 2309.97,-412.94 2358.23,-398.13"/>
<polygon fill="black" stroke="black" points="2359.42,-401.43 2367.95,-395.15 2357.36,-394.73 2359.42,-401.43"/>
<text text-anchor="middle" x="2309.5" y="-417.36" font-family="Times,serif" font-size="14.00">no</text>
</g>
<!-- leaf4 -->
<g id="node39" class="node">
<title>leaf4</title>
<ellipse fill="none" stroke="black" cx="2423.5" cy="-289.19" rx="81.13" ry="25.41"/>
<text text-anchor="start" x="2374" y="-292.99" font-family="Times,serif" font-size="14.00">leaf 4: </text>
<text text-anchor="start" x="2423" y="-292.99" font-family="Times,serif" font-weight="bold" font-size="14.00">&#45;2.291</text>
<text text-anchor="start" x="2381" y="-278.99" font-family="Times,serif" font-size="14.00">count: 5203</text>
</g>
<!-- split6&#45;&gt;leaf4 -->
<g id="edge36" class="edge">
<title>split6&#45;&gt;leaf4</title>
<path fill="none" stroke="black" d="M2423.5,-358.72C2423.5,-349.03 2423.5,-336.62 2423.5,-325.03"/>
<polygon fill="black" stroke="black" points="2427,-324.71 2423.5,-314.71 2420,-324.71 2427,-324.71"/>
<text text-anchor="middle" x="2436" y="-329.45" font-family="Times,serif" font-size="14.00">yes</text>
</g>
<!-- leaf7 -->
<g id="node41" class="node">
<title>leaf7</title>
<ellipse fill="none" stroke="black" cx="2590.5" cy="-289.19" rx="81.13" ry="25.41"/>
<text text-anchor="start" x="2541" y="-292.99" font-family="Times,serif" font-size="14.00">leaf 7: </text>
<text text-anchor="start" x="2590" y="-292.99" font-family="Times,serif" font-weight="bold" font-size="14.00">&#45;2.142</text>
<text text-anchor="start" x="2548" y="-278.99" font-family="Times,serif" font-size="14.00">count: 4359</text>
</g>
<!-- split6&#45;&gt;leaf7 -->
<g id="edge37" class="edge">
<title>split6&#45;&gt;leaf7</title>
<path fill="none" stroke="black" d="M2456.89,-358.92C2480.84,-346.61 2513.51,-329.8 2540.55,-315.89"/>
<polygon fill="black" stroke="black" points="2542.19,-318.98 2549.48,-311.29 2538.99,-312.76 2542.19,-318.98"/>
<text text-anchor="middle" x="2526.5" y="-329.45" font-family="Times,serif" font-size="14.00">no</text>
</g>
</g>
</svg>
